PathFileType	4	(X/Y/Z)	C:\Users\Graham\Documents\MATLAB\MOtoNMS_v2_2\MyData\ElaboratedData\S3\17-05-18\staticElaborations\Static1\Static1\\Static1.trc
DataRate	CameraRate	NumFrames	NumMarkers	Units	OrigDataRate	DataStartFrame
100	100	9	38	mm	100	2
Frame#	Time	V_Sacral			R_ASIS			L_ASIS			R_Knee_Lat			R_Knee_Med			R_Thigh_Upper			R_Thigh_Front			R_Thigh_Rear			L_Knee_Lat			L_Knee_Med			L_Thigh_Upper			L_Thigh_Front			L_Thigh_Rear			R_Ankle_Lat			R_Ankle_Med			R_Shank_Upper			R_Shank_Front			R_Shank_Rear			L_Ankle_Lat			L_Ankle_Med			L_Shank_Upper			L_Shank_Front			L_Shank_Rear			R_Heel			R_MTP1			R_MTP5			L_Heel			L_MTP1			L_MTP5			Clavicle			R_Acromium			L_Acromium			LAJC			RAJC			LHJC			RHJC			LKJC			RKJC		
		X1	Y1	Z1	X2	Y2	Z2	X3	Y3	Z3	X4	Y4	Z4	X5	Y5	Z5	X6	Y6	Z6	X7	Y7	Z7	X8	Y8	Z8	X9	Y9	Z9	X10	Y10	Z10	X11	Y11	Z11	X12	Y12	Z12	X13	Y13	Z13	X14	Y14	Z14	X15	Y15	Z15	X16	Y16	Z16	X17	Y17	Z17	X18	Y18	Z18	X19	Y19	Z19	X20	Y20	Z20	X21	Y21	Z21	X22	Y22	Z22	X23	Y23	Z23	X24	Y24	Z24	X25	Y25	Z25	X26	Y26	Z26	X27	Y27	Z27	X28	Y28	Z28	X29	Y29	Z29	X30	Y30	Z30	X31	Y31	Z31	X32	Y32	Z32	X33	Y33	Z33	X34	Y34	Z34	X35	Y35	Z35	X36	Y36	Z36	X37	Y37	Z37	X38	Y38	Z38	

127	1.260000	-51.644781	1040.173569	52.841975	144.109695	1005.176202	180.543902	143.839967	1003.331147	-65.647485	49.941491	522.397692	177.042178	29.345731	516.589431	61.536964	145.066684	741.414758	179.092129	136.274477	650.509983	139.100920	105.209118	650.851763	182.590738	57.098169	524.263971	-111.215571	54.247203	513.454431	8.358737	150.132977	777.379510	-91.137853	151.673424	675.647273	-56.153634	116.831940	676.785680	-105.697792	-8.540454	99.999632	146.516880	1.163348	111.832784	65.337878	60.207781	319.906247	134.678850	44.894937	226.980066	99.216433	34.787425	223.216630	156.849244	-6.130418	108.780882	-131.533775	4.984662	105.211917	-51.278496	64.138837	302.162519	-83.224274	47.456592	208.987849	-56.170839	52.905526	213.220584	-115.328132	-70.545451	49.569326	106.123313	138.471546	55.690643	81.401877	107.494641	50.995162	159.636852	-70.429145	51.435207	-104.933867	135.467467	53.416905	-76.479659	111.189706	49.899201	-153.537571	79.574131	1403.265797	67.306009	-2.510966	1423.231680	230.093093	17.475071	1439.805852	-109.752511	-0.572878	106.996400	-91.406135	-3.688553	105.916208	105.927379	71.859233	930.650259	-30.469196	72.053249	931.977410	146.616701	55.672686	518.859201	-51.428417	39.643611	519.493561	119.289571	
128	1.270000	-51.676135	1040.192283	52.762581	144.080212	1005.194540	180.447266	143.793459	1003.335435	-65.735283	49.901589	522.361565	177.015656	29.327882	516.580761	61.479892	145.039109	741.429943	179.020384	136.246944	650.519164	139.040636	105.178099	650.862705	182.525146	57.057790	524.261145	-111.267216	54.209541	513.458569	8.311208	150.083655	777.386715	-91.208037	151.626454	675.652014	-56.220580	116.784883	676.785436	-105.761772	-8.543225	100.001309	146.512528	1.162461	111.826789	65.329282	60.187974	319.907663	134.649249	44.887618	226.980272	99.197851	34.777151	223.222526	156.829317	-6.133382	108.774180	-131.541733	4.982002	105.213663	-51.287867	64.118685	302.165346	-83.250509	47.384208	208.935754	-56.182644	52.887344	213.215223	-115.345367	-70.543260	49.567249	106.121627	138.471570	55.691735	81.402490	107.494136	50.996108	159.636645	-70.430188	51.431403	-104.938287	135.466685	53.425085	-76.481657	111.188273	49.898406	-153.539026	79.572170	1403.289238	67.191091	-2.501659	1423.263103	229.975598	17.476484	1439.819391	-109.858999	-0.575690	106.993921	-91.414800	-3.690382	105.914049	105.920905	71.813705	930.662067	-30.549368	72.019967	931.999328	146.530689	55.633666	518.859857	-51.478004	39.614735	519.471163	119.247774	
129	1.280000	-51.701813	1040.209171	52.681162	144.048189	1005.213168	180.349308	143.748248	1003.337937	-65.824128	49.868273	522.353837	176.970405	29.308024	516.572479	61.423682	145.010731	741.445382	178.948593	136.218654	650.528398	138.980998	105.147910	650.874456	182.461332	57.016636	524.257916	-111.320457	54.170538	513.462181	8.261184	150.038578	777.395163	-91.279155	151.579317	675.655796	-56.290277	116.738311	676.785070	-105.828735	-8.545797	100.003135	146.509168	1.161280	111.821777	65.320935	60.168295	319.909648	134.619938	44.879086	226.980191	99.179019	34.766917	223.228859	156.809243	-6.136973	108.767216	-131.550329	4.978687	105.215152	-51.296939	64.097696	302.167883	-83.277855	47.297441	208.871429	-56.194961	52.868936	213.210347	-115.362889	-70.542149	49.565644	106.120900	138.471092	55.693336	81.402245	107.493697	50.997482	159.636393	-70.431285	51.427362	-104.943070	135.465462	53.431107	-76.483026	111.186878	49.897384	-153.541011	79.573534	1403.311536	67.073799	-2.491939	1423.293701	229.855143	17.474583	1439.828459	-109.969108	-0.579143	106.991184	-91.423634	-3.692259	105.912456	105.915051	71.770411	930.672218	-30.631140	71.986160	932.021082	146.442894	55.593587	518.860048	-51.529636	39.588149	519.463158	119.197043	
130	1.290000	-51.723547	1040.224268	52.597644	144.013304	1005.232142	180.249924	143.704409	1003.338586	-65.913488	49.840479	522.373983	176.905753	29.286389	516.564767	61.368382	144.981259	741.461099	178.876787	136.189553	650.537803	138.921894	105.118501	650.887136	182.399275	56.974956	524.254303	-111.375224	54.129806	513.465672	8.208582	149.997564	777.404555	-91.351442	151.532240	675.658661	-56.362497	116.692597	676.784573	-105.898396	-8.547912	100.005295	146.506503	1.159588	111.817483	65.313004	60.148858	319.912310	134.590856	44.869280	226.979824	99.159827	34.756859	223.235824	156.788994	-6.141242	108.759996	-131.559522	4.974324	105.216391	-51.305630	64.075862	302.170009	-83.306040	47.200152	208.798705	-56.208116	52.850466	213.206158	-115.380728	-70.542863	49.564625	106.121821	138.470155	55.695381	81.400997	107.493381	50.999166	159.636111	-70.432537	51.423042	-104.948125	135.463711	53.434452	-76.483745	111.185596	49.896117	-153.543539	79.578743	1403.333208	66.953489	-2.481389	1423.324084	229.732024	17.469127	1439.832768	-110.083425	-0.583459	106.988193	-91.432576	-3.694162	105.911389	105.909753	71.729121	930.680828	-30.714167	71.951311	932.042878	146.353241	55.552381	518.859988	-51.583321	39.563434	519.469375	119.137068	
131	1.300000	-51.743350	1040.237705	52.511948	143.975444	1005.251489	180.149134	143.661975	1003.337445	-66.002886	49.816604	522.419250	176.822559	29.263448	516.557745	61.313905	144.950279	741.477066	178.804908	136.159517	650.547480	138.863059	105.089606	650.900797	182.338708	56.933046	524.250348	-111.431315	54.087087	513.469485	8.153522	149.960129	777.414464	-91.424974	151.485454	675.660689	-56.436743	116.648083	676.783902	-105.970160	-8.549307	100.007907	146.504104	1.157228	111.813555	65.305578	60.129650	319.915653	134.561876	44.858200	226.979146	99.140144	34.747020	223.243544	156.768520	-6.146166	108.752510	-131.569228	4.968663	105.217378	-51.313925	64.053256	302.171642	-83.334691	47.097617	208.722645	-56.222414	52.832093	213.202702	-115.398903	-70.545822	49.564234	106.124710	138.468864	55.697768	81.398754	107.493200	51.001008	159.635837	-70.434034	51.418436	-104.953337	135.461420	53.434950	-76.483923	111.184472	49.894632	-153.546552	79.587879	1403.354703	66.829600	-2.469913	1423.354969	229.606524	17.460146	1439.832350	-110.202503	-0.588752	106.984944	-91.441577	-3.696040	105.910731	105.904841	71.689507	930.688076	-30.798104	71.914988	932.064869	146.261776	55.510066	518.859916	-51.638896	39.540026	519.488498	119.068232	
132	1.310000	-51.763343	1040.249694	52.423957	143.934714	1005.271188	180.047087	143.620961	1003.334705	-66.091958	49.794693	522.484993	176.723111	29.239822	516.551458	61.260060	144.917296	741.493195	178.732804	136.128370	650.557504	138.804088	105.060790	650.915417	182.279164	56.891205	524.246100	-111.488414	54.042272	513.474037	8.096312	149.925649	777.424405	-91.499622	151.439168	675.661984	-56.512309	116.605028	676.782988	-106.043186	-8.549756	100.011020	146.501462	1.154114	111.809622	65.298656	60.110544	319.919584	134.532817	44.845906	226.978099	99.119830	34.737336	223.252045	156.747749	-6.151654	108.744743	-131.579334	4.961653	105.218091	-51.321860	64.030020	302.172760	-83.363405	46.995736	208.648782	-56.238106	52.813945	213.199864	-115.417433	-70.551116	49.564435	106.129516	138.467360	55.700379	81.395666	107.493127	51.002860	159.635612	-70.435842	51.413572	-104.958594	135.458672	53.432839	-76.483816	111.183515	49.892996	-153.549935	79.600610	1403.376329	66.701730	-2.457763	1423.387091	229.478847	17.447931	1439.827557	-110.326814	-0.595000	106.981417	-91.450597	-3.697821	105.910321	105.900059	71.651193	930.694184	-30.882660	71.876880	932.087124	146.168646	55.466739	518.860069	-51.696051	39.517257	519.518225	118.991586	
133	1.320000	-51.785566	1040.260516	52.333485	143.891402	1005.291157	179.944037	143.581377	1003.330672	-66.180492	49.772672	522.565219	176.610868	29.216153	516.545884	61.206604	144.881804	741.509342	178.660255	136.095907	650.567914	138.744481	105.031527	650.930905	182.220051	56.849687	524.241613	-111.546134	53.995409	513.479664	8.037415	149.893485	777.433906	-91.575059	151.393534	675.662664	-56.588359	116.563563	676.781743	-106.116483	-8.549101	100.014608	146.498073	1.150231	111.805361	65.292147	60.091341	319.923942	134.503475	44.832517	226.976609	99.098770	34.727628	223.261244	156.726599	-6.157567	108.736676	-131.589719	4.953466	105.218503	-51.329502	64.006337	302.173406	-83.391820	46.900108	208.582232	-56.255351	52.796106	213.197393	-115.436328	-70.558540	49.565131	106.135850	138.465800	55.703095	81.391983	107.493099	51.004611	159.635464	-70.437998	51.408510	-104.963809	135.455658	53.428772	-76.483792	111.182705	49.891299	-153.553535	79.616243	1403.398209	66.569687	-2.445500	1423.421123	229.349078	17.432998	1439.819023	-110.456703	-0.602051	106.977590	-91.459611	-3.699435	105.909984	105.895110	71.613794	930.699403	-30.967648	71.836801	932.109614	146.074067	55.422548	518.860639	-51.754360	39.494412	519.555552	118.908736	
134	1.330000	-51.811818	1040.270507	52.240280	143.845921	1005.311268	179.840294	143.543236	1003.325735	-66.268454	49.748606	522.653314	176.490057	29.192972	516.540956	61.153292	144.843366	741.525323	178.587011	136.061921	650.578702	138.683705	105.001275	650.947101	182.160748	56.808673	524.236931	-111.604059	53.946701	513.486578	7.977388	149.863052	777.442534	-91.650811	151.348637	675.662841	-56.664026	116.523666	676.780070	-106.189030	-8.547300	100.018591	146.493517	1.145630	111.800551	65.285895	60.071817	319.928560	134.473668	44.818191	226.974609	99.076902	34.717636	223.270960	156.705008	-6.163744	108.728306	-131.600262	4.944470	105.218590	-51.336935	63.982404	302.173689	-83.419667	46.815224	208.526932	-56.274187	52.778614	213.194982	-115.455581	-70.567629	49.566179	106.143052	138.464323	55.705822	81.387996	107.493045	51.006212	159.635389	-70.440503	51.403331	-104.968928	135.452658	53.423751	-76.484255	111.181993	49.889641	-153.557183	79.633816	1403.420272	66.433531	-2.433909	1423.457587	229.217164	17.416029	1439.807592	-110.592318	-0.609637	106.973448	-91.468599	-3.700835	105.909571	105.889706	71.576949	930.703995	-31.053023	71.794677	932.132231	145.978265	55.377687	518.861755	-51.813335	39.470789	519.597135	118.821674	
135	1.340000	-51.843510	1040.280042	52.144033	143.798739	1005.331365	179.736171	143.506559	1003.320317	-66.355991	49.720944	522.742837	176.365202	29.170573	516.536582	61.099932	144.801696	741.540932	178.512846	136.026221	650.589813	138.621280	104.969545	650.963796	182.100718	56.768266	524.232086	-111.661789	53.896503	513.494852	7.916820	149.833805	777.449903	-91.726351	151.304496	675.662621	-56.738503	116.485151	676.777875	-106.259909	-8.544454	100.022840	146.487529	1.140412	111.795113	65.279717	60.051776	319.933303	134.443278	44.803107	226.972070	99.054245	34.707046	223.280942	156.682957	-6.170022	108.719654	-131.610846	4.935173	105.218352	-51.344251	63.958409	302.173767	-83.446808	46.743952	208.485170	-56.294526	52.761471	213.192350	-115.475153	-70.577693	49.567415	106.150268	138.463025	55.708509	81.383976	107.492910	51.007692	159.635346	-70.443325	51.398116	-104.973932	135.449995	53.418992	-76.485540	111.181319	49.888111	-153.560721	79.652208	1403.442267	66.293571	-2.423871	1423.496786	229.082945	17.397820	1439.794225	-110.733554	-0.617424	106.969003	-91.477549	-3.702021	105.908976	105.883623	71.540345	930.708216	-31.138894	71.750517	932.154813	145.881435	55.332384	518.863469	-51.872484	39.445759	519.639709	118.732567	
